<svg id="visual" viewBox="0 0 900 600" width="900" height="600" xmlns="http://www.w3.org/2000/svg" xmlns:xlink="http://www.w3.org/1999/xlink" version="1.1"><rect x="0" y="0" width="900" height="600" fill="#151a1e"></rect><g fill="#2b2c2f"><circle r="72" cx="139" cy="214"></circle><circle r="23" cx="832" cy="373"></circle><circle r="35" cx="325" cy="19"></circle><circle r="24" cx="498" cy="432"></circle><circle r="29" cx="99" cy="570"></circle><circle r="34" cx="458" cy="593"></circle><circle r="69" cx="713" cy="511"></circle><circle r="62" cx="551" cy="173"></circle><circle r="53" cx="144" cy="37"></circle><circle r="29" cx="245" cy="342"></circle><circle r="67" cx="730" cy="198"></circle><circle r="38" cx="287" cy="595"></circle><circle r="41" cx="644" cy="58"></circle><circle r="30" cx="359" cy="192"></circle><circle r="48" cx="868" cy="39"></circle><circle r="43" cx="648" cy="366"></circle><circle r="27" cx="21" cy="328"></circle><circle r="27" cx="885" cy="227"></circle><circle r="50" cx="6" cy="118"></circle><circle r="55" cx="497" cy="23"></circle></g></svg>