<?xml version="1.0" standalone="no"?>
<!DOCTYPE svg PUBLIC "-//W3C//DTD SVG 20010904//EN"
 "http://www.w3.org/TR/2001/REC-SVG-20010904/DTD/svg10.dtd">
<svg version="1.0" xmlns="http://www.w3.org/2000/svg"
 width="32.000000pt" height="32.000000pt" viewBox="0 0 32.000000 32.000000"
 preserveAspectRatio="xMidYMid meet">

<g transform="translate(0.000000,32.000000) scale(0.100000,-0.100000)"
fill="#544d3d" stroke="none">
<path d="M20 300 c-18 -18 -20 -33 -20 -140 0 -107 2 -122 20 -140 18 -18 33
-20 140 -20 161 0 160 -1 160 160 0 161 1 160 -160 160 -107 0 -122 -2 -140
-20z m117 -92 l23 -21 25 23 c19 18 28 21 37 12 9 -9 6 -18 -12 -37 l-23 -25
23 -25 c18 -19 21 -28 12 -37 -9 -9 -18 -6 -37 12 l-25 23 -25 -23 c-19 -18
-28 -21 -37 -12 -9 9 -6 18 12 37 l23 25 -22 24 c-13 14 -20 29 -16 35 9 16
16 14 42 -11z"/>
</g>
</svg>
