<?xml version="1.0" standalone="no"?>
<!DOCTYPE svg PUBLIC "-//W3C//DTD SVG 20010904//EN"
 "http://www.w3.org/TR/2001/REC-SVG-20010904/DTD/svg10.dtd">
<svg version="1.0" xmlns="http://www.w3.org/2000/svg"
 width="32.000000pt" height="32.000000pt" viewBox="0 0 32.000000 32.000000"
 preserveAspectRatio="xMidYMid meet">

<g transform="translate(0.000000,32.000000) scale(0.100000,-0.100000)"
fill="blue" stroke="none">
<path d="M95 306 c-101 -44 -125 -178 -46 -257 65 -65 157 -65 222 0 124 124
-15 327 -176 257z m139 -72 c22 -21 22 -127 0 -148 -21 -22 -127 -22 -148 0
-22 21 -22 127 0 148 10 11 34 16 74 16 40 0 64 -5 74 -16z"/>
<path d="M121 231 c-30 -8 -45 -56 -33 -103 6 -25 15 -34 40 -40 50 -13 94 3
104 37 8 30 1 92 -11 99 -15 9 -78 14 -100 7z m99 -21 c0 -5 -4 -10 -10 -10
-5 0 -10 5 -10 10 0 6 5 10 10 10 6 0 10 -4 10 -10z m-30 -20 c11 -11 20 -24
20 -30 0 -13 -37 -50 -50 -50 -13 0 -50 37 -50 50 0 6 9 19 20 30 11 11 25 20
30 20 6 0 19 -9 30 -20z"/>
<path d="M134 176 c-10 -26 4 -48 28 -44 17 2 23 10 23 28 0 18 -6 26 -23 28
-13 2 -25 -3 -28 -12z"/>
</g>
</svg>
