<?xml version="1.0" standalone="no"?>
<!DOCTYPE svg PUBLIC "-//W3C//DTD SVG 20010904//EN"
 "http://www.w3.org/TR/2001/REC-SVG-20010904/DTD/svg10.dtd">
<svg version="1.0" xmlns="http://www.w3.org/2000/svg"
 width="32.000000pt" height="32.000000pt" viewBox="0 0 32.000000 32.000000"
 preserveAspectRatio="xMidYMid meet">

<g transform="translate(0.000000,32.000000) scale(0.100000,-0.100000)"
fill="blue" stroke="white">
<path d="M12 308 c-17 -17 -17 -279 0 -296 17 -17 279 -17 296 0 17 17 17 279
0 296 -17 17 -279 17 -296 0z m96 -76 c3 -16 -2 -22 -17 -22 -24 0 -35 15 -27
36 9 23 40 13 44 -14z m132 -52 c15 -15 20 -33 20 -70 0 -43 -3 -50 -20 -50
-16 0 -20 7 -20 38 0 45 -13 67 -34 59 -11 -5 -16 -19 -16 -52 0 -38 -3 -45
-20 -45 -18 0 -20 7 -20 66 0 65 1 66 24 62 14 -3 31 -1 38 3 19 13 26 11 48
-11z m-130 -55 c0 -58 -2 -65 -20 -65 -18 0 -20 7 -20 65 0 58 2 65 20 65 18
0 20 -7 20 -65z"/>
</g>
</svg>
